<?xml version="1.0" encoding="utf-8"?>
<!-- Generator: Adobe Illustrator 22.1.0, SVG Export Plug-In . SVG Version: 6.00 Build 0)  -->
<svg version="1.1" id="Layer_1" xmlns="http://www.w3.org/2000/svg" xmlns:xlink="http://www.w3.org/1999/xlink" x="0px" y="0px"
	 viewBox="-1 0 70 58" style="enable-background:new -1 0 70 58;" xml:space="preserve">
<style type="text/css">
	.st0{fill:none;stroke:#066c4d;stroke-miterlimit:10;}
	.st1{fill:#e9db00;}
	.st2{fill:#e9db00;stroke:#e9db00;stroke-miterlimit:10;}
	.st3{fill:none;stroke:#e9db00;stroke-miterlimit:10;}
	.st4{fill:none;stroke:#e9db00;stroke-miterlimit:10;}
	.st5{fill:#FFFFFF;stroke:#066c4d;stroke-miterlimit:10;}
</style>
<line class="st0" x1="45" y1="29.5" x2="65" y2="29.5"/>
<rect x="3" y="24" class="st1" width="40" height="7"/>
<rect x="0.5" y="0.5" class="st0" width="64" height="56"/>
<line class="st0" x1="48" y1="26.5" x2="54" y2="26.5"/>
<line class="st0" x1="56" y1="26.5" x2="61" y2="26.5"/>
<rect x="49.5" y="34.5" class="st2" width="10" height="5"/>
<line class="st0" x1="48" y1="44.5" x2="61" y2="44.5"/>
<line class="st3" x1="48" y1="49.5" x2="61" y2="49.5"/>
<line class="st0" x1="1" y1="22.5" x2="65" y2="22.5"/>
<line class="st0" x1="1" y1="33.5" x2="45" y2="33.5"/>
<rect x="5.5" y="38.5" class="st0" width="35" height="6"/>
<line class="st4" x1="8.5" y1="26" x2="8.5" y2="29"/>
<line class="st4" x1="13.5" y1="26" x2="13.5" y2="29"/>
<line class="st4" x1="17.5" y1="26" x2="17.5" y2="29"/>
<line class="st4" x1="23.5" y1="26" x2="23.5" y2="29"/>
<line class="st4" x1="27.5" y1="26" x2="27.5" y2="29"/>
<line class="st4" x1="32.5" y1="26" x2="32.5" y2="29"/>
<line class="st4" x1="37.5" y1="26" x2="37.5" y2="29"/>
<line class="st0" x1="45.5" y1="22" x2="45.5" y2="56"/>
<line class="st0" x1="38.5" y1="47" x2="38.5" y2="52"/>
<line class="st0" x1="33.5" y1="47" x2="33.5" y2="52"/>
<line class="st3" x1="17" y1="49.5" x2="19" y2="49.5"/>
<line class="st3" x1="22" y1="49.5" x2="24" y2="49.5"/>
<line class="st3" x1="27" y1="49.5" x2="29" y2="49.5"/>
<path class="st0" d="M12.5,49.7c0,1.4-1.1,2.5-2.5,2.5s-2.5-1.1-2.5-2.5s1.1-2.5,2.5-2.5S12.5,48.4,12.5,49.7z"/>
<path class="st5" d="M20.4,11.4c0,3.3-2.7,6-6,6s-6-2.7-6-6s2.7-6,6-6C17.7,5.4,20.4,8.1,20.4,11.4z"/>
<path class="st5" d="M57.3,11.4c0,3.3-2.7,6-6,6s-6-2.7-6-6s2.7-6,6-6C54.6,5.4,57.3,8.1,57.3,11.4z"/>
<path class="st0" d="M38.9,11.4c0,3.3-2.7,6-6,6s-6-2.7-6-6s2.7-6,6-6C36.2,5.4,38.9,8.1,38.9,11.4z"/>
<line class="st3" x1="14.4" y1="11.4" x2="16.9" y2="8.9"/>
<line class="st3" x1="50.9" y1="10.9" x2="53.3" y2="13.4"/>
<path class="st1" d="M57,11.4c0,3.1-2.5,5.6-5.6,5.6s-5.6-2.5-5.6-5.6s2.5-5.6,5.6-5.6S57,8.3,57,11.4z"/>
<line class="st0" x1="34.8" y1="13.4" x2="32.4" y2="10.9"/>
</svg>
