<?xml version="1.0" encoding="utf-8"?>
<!-- Generator: Adobe Illustrator 22.1.0, SVG Export Plug-In . SVG Version: 6.00 Build 0)  -->
<svg version="1.1" id="Layer_1" xmlns="http://www.w3.org/2000/svg" xmlns:xlink="http://www.w3.org/1999/xlink" x="0px" y="0px"
	 viewBox="-1 -3 65 60" style="enable-background:new -1 -3 65 60;" xml:space="preserve">
<style type="text/css">
	.st0{fill:#066c4d;}
	.st1{fill:#066c4d;}
	.st2{fill:none;stroke:#e9db00;stroke-miterlimit:10;}
	.st3{fill:none;stroke:#e9db00;stroke-miterlimit:10;}
	.st4{fill:#e9db00;stroke:#e9db00;stroke-miterlimit:10;}
</style>
<g>
	<polygon class="st0" points="64,38 59,38 59,37 63,37 63,0 47,0 47,37 53,37 53,38 46,38 46,-1 64,-1 	"/>
</g>
<g>
	<rect x="50.5" y="5.5" class="st1" width="9" height="4"/>
	<path class="st1" d="M60,10H50V5h10V10z M51,9h8V6h-8V9z"/>
</g>
<g>
	<path class="st0" d="M60,17H50v-5h10V17z M51,16h8v-3h-8V16z"/>
</g>
<path class="st2" d="M57.5,55.5c0,0.6-0.5,1-1,1h-3.9c-0.6,0-1-0.5-1-1v-8.9c0-0.6,0.5-1,1-1h3.9c0.6,0,1,0.5,1,1V55.5z"/>
<g>
	<path class="st0" d="M55,40.9h-1v-4.4c0-0.2,0.1-0.4,0.3-0.5c0.4-0.2,0.9,0,1.9,0.5c0.4,0.2,0.9,0.4,1.1,0.5H59v1h-1.7
		c-0.3,0-0.8-0.2-1.5-0.6c-0.2-0.1-0.5-0.3-0.8-0.4V40.9z"/>
</g>
<path class="st3" d="M59.3,27.3c0,1.7-1.4,3.1-3.1,3.1c-1.7,0-3.1-1.4-3.1-3.1s1.4-3.1,3.1-3.1C58,24.2,59.3,25.6,59.3,27.3z"/>
<g>
	<polygon class="st0" points="40,38 35,38 35,37 39,37 39,0 23,0 23,37 29,37 29,38 22,38 22,-1 40,-1 	"/>
</g>
<rect x="26.5" y="4.5" class="st3" width="9" height="4"/>
<g>
	<rect x="26.5" y="12.5" class="st1" width="9" height="4"/>
	<path class="st1" d="M36,17H26v-5h10V17z M27,16h8v-3h-8V16z"/>
</g>
<path class="st4" d="M33.5,55.5c0,0.6-0.5,1-1,1h-3.9c-0.6,0-1-0.5-1-1v-8.9c0-0.6,0.5-1,1-1h3.9c0.6,0,1,0.5,1,1V55.5z"/>
<g>
	<path class="st0" d="M31,41h-1v-4.4c0-0.2,0.1-0.4,0.3-0.5c0.4-0.3,1-0.1,2.3,0.5c0.4,0.2,1,0.4,1.2,0.4H35v1h-1.2
		c-0.3,0-0.8-0.2-1.6-0.5c-0.3-0.1-0.9-0.4-1.2-0.5V41z"/>
</g>
<path class="st3" d="M35.8,27.3c0,1.7-1.4,3.1-3.1,3.1c-1.7,0-3.1-1.4-3.1-3.1s1.4-3.1,3.1-3.1C34.5,24.2,35.8,25.6,35.8,27.3z"/>
<g>
	<polygon class="st0" points="17,38 12,38 12,37 16,37 16,0 0,0 0,37 6,37 6,38 -1,38 -1,-1 17,-1 	"/>
</g>
<g>
	<rect x="3.5" y="5.5" class="st1" width="9" height="4"/>
	<path class="st1" d="M13,10H3V5h10V10z M4,9h8V6H4V9z"/>
</g>
<g>
	<path class="st0" d="M13,17H3v-5h10V17z M4,16h8v-3H4V16z"/>
</g>
<path class="st2" d="M10.5,55.5c0,0.6-0.5,1-1,1h-4c-0.6,0-1-0.5-1-1v-8.9c0-0.6,0.5-1,1-1h3.9c0.6,0,1,0.5,1,1v8.9H10.5z"/>
<g>
	<path class="st0" d="M8,40.9H7v-4.4c0-0.2,0.1-0.4,0.3-0.5c0.4-0.2,0.9,0,1.9,0.5c0.4,0.2,0.9,0.4,1.1,0.5H12v1h-1.7
		c-0.3,0-0.8-0.2-1.5-0.6C8.6,37.3,8.3,37.1,8,37V40.9z"/>
</g>
<path class="st3" d="M12.3,27.3c0,1.7-1.4,3.1-3.1,3.1S6.1,29,6.1,27.3s1.4-3.1,3.1-3.1C11,24.2,12.3,25.6,12.3,27.3z"/>
</svg>
