<?xml version="1.0" encoding="utf-8"?>
<!-- Generator: Adobe Illustrator 22.1.0, SVG Export Plug-In . SVG Version: 6.00 Build 0)  -->
<svg version="1.1" id="Layer_1" xmlns="http://www.w3.org/2000/svg" xmlns:xlink="http://www.w3.org/1999/xlink" x="0px" y="0px"
	 viewBox="0 0 65 58" style="enable-background:new 0 0 65 58;" xml:space="preserve">
<style type="text/css">
	.st0{fill:none;stroke:#066c4d;stroke-miterlimit:10;}
	.st1{fill:none;stroke:#e9db00;stroke-miterlimit:10;}
	.st2{fill:#e9db00;stroke:#e9db00;stroke-miterlimit:10;}
	.st3{fill:#e9db00;}
</style>
<line class="st0" x1="27.5" y1="32" x2="27.5" y2="37"/>
<line class="st0" x1="16.5" y1="37" x2="16.5" y2="32"/>
<polyline class="st0" points="54,38.5 47.5,38.5 47.5,0.5 64.5,0.5 64.5,38.5 60,38.5 "/>
<polyline class="st0" points="33,38.5 43.5,38.5 43.5,56.5 0.5,56.5 0.5,38.5 13,38.5 "/>
<line class="st1" x1="10" y1="47.5" x2="12" y2="47.5"/>
<line class="st1" x1="14" y1="47.5" x2="16" y2="47.5"/>
<line class="st1" x1="18" y1="47.5" x2="20" y2="47.5"/>
<line class="st1" x1="22" y1="47.5" x2="24" y2="47.5"/>
<line class="st1" x1="26" y1="47.5" x2="28" y2="47.5"/>
<line class="st1" x1="30" y1="47.5" x2="32" y2="47.5"/>
<line class="st1" x1="34" y1="47.5" x2="36" y2="47.5"/>
<line class="st1" x1="10" y1="51.5" x2="12" y2="51.5"/>
<line class="st0" x1="5" y1="47.5" x2="7" y2="47.5"/>
<line class="st0" x1="5" y1="51.5" x2="7" y2="51.5"/>
<line class="st0" x1="38" y1="47.5" x2="40" y2="47.5"/>
<line class="st0" x1="10" y1="43.5" x2="12" y2="43.5"/>
<line class="st0" x1="14" y1="43.5" x2="16" y2="43.5"/>
<line class="st0" x1="18" y1="43.5" x2="20" y2="43.5"/>
<line class="st0" x1="22" y1="43.5" x2="24" y2="43.5"/>
<line class="st0" x1="26" y1="43.5" x2="28" y2="43.5"/>
<line class="st0" x1="30" y1="43.5" x2="32" y2="43.5"/>
<line class="st0" x1="34" y1="43.5" x2="36" y2="43.5"/>
<line class="st0" x1="5" y1="43.5" x2="7" y2="43.5"/>
<line class="st0" x1="38" y1="43.5" x2="40" y2="43.5"/>
<line class="st0" x1="38" y1="51.5" x2="40" y2="51.5"/>
<line class="st1" x1="14" y1="51.5" x2="16" y2="51.5"/>
<line class="st1" x1="18" y1="51.5" x2="28" y2="51.5"/>
<line class="st1" x1="30" y1="51.5" x2="32" y2="51.5"/>
<line class="st1" x1="34" y1="51.5" x2="36" y2="51.5"/>
<rect x="51.5" y="5.5" class="st2" width="9" height="4"/>
<rect x="51.5" y="13.5" class="st0" width="9" height="4"/>
<path class="st0" d="M44.5,30.5c0,0.6-0.5,1-1,1h-42c-0.6,0-1-0.5-1-1v-29c0-0.6,0.5-1,1-1h41.9c0.6,0,1,0.5,1,1L44.5,30.5
	L44.5,30.5z"/>
<line class="st0" x1="15" y1="38.5" x2="31" y2="38.5"/>
<path class="st0" d="M58.5,56.5c0,0.6-0.5,1-1,1h-3.9c-0.6,0-1-0.5-1-1v-8.9c0-0.6,0.5-1,1-1h3.9c0.6,0,1,0.5,1,1V56.5z"/>
<path class="st0" d="M55.5,42v-4.4c0-0.6,2.2,0.9,2.8,0.9H60"/>
<path class="st2" d="M60.3,28.3c0,1.7-1.4,3.1-3.1,3.1c-1.7,0-3.1-1.4-3.1-3.1s1.4-3.1,3.1-3.1C59,25.2,60.3,26.6,60.3,28.3z"/>
<rect x="4.5" y="5.5" class="st0" width="35" height="22"/>
<rect x="7" y="7" class="st3" width="30" height="7"/>
<line class="st0" x1="7" y1="17.5" x2="37" y2="17.5"/>
<line class="st1" x1="7" y1="20.5" x2="37" y2="20.5"/>
<line class="st0" x1="7" y1="23.5" x2="22" y2="23.5"/>
</svg>
