<?xml version="1.0" encoding="utf-8"?>
<!-- Generator: Adobe Illustrator 22.1.0, SVG Export Plug-In . SVG Version: 6.00 Build 0)  -->
<svg version="1.1" id="Layer_1" xmlns="http://www.w3.org/2000/svg" xmlns:xlink="http://www.w3.org/1999/xlink" x="0px" y="0px"
	 viewBox="-1 0 69 58" style="enable-background:new -1 0 69 58;" xml:space="preserve">
<style type="text/css">
	.st0{fill:none;stroke:#066c4d;stroke-miterlimit:10;}
	.st1{fill:none;stroke:#e9db00;stroke-miterlimit:10;}
	.st2{fill:#e9db00;stroke:#e9db00;stroke-miterlimit:10;}
	.st3{fill:#e9db00;}
	.st4{font-family:'Roboto-Black';}
	.st5{font-size:6px;}
	.st6{fill:#066c4d;}
</style>
<rect x="2.5" y="34.5" class="st0" width="58" height="19"/>
<rect x="-0.5" y="31.5" class="st1" width="64" height="25"/>
<g>
	<line class="st1" x1="8.5" y1="40" x2="8.5" y2="47"/>
	<line class="st1" x1="13.5" y1="40" x2="13.5" y2="47"/>
	<line class="st1" x1="18.5" y1="40" x2="18.5" y2="47"/>
	<line class="st1" x1="23.5" y1="40" x2="23.5" y2="47"/>
	<line class="st1" x1="42" y1="44.5" x2="39" y2="44.5"/>
	<line class="st1" x1="37" y1="44.5" x2="34" y2="44.5"/>3:55 PM 1/15/2019
	<line class="st1" x1="32" y1="44.5" x2="29" y2="44.5"/>
	<path class="st2" d="M54.3,43.1c0,2-1.7,3.7-3.7,3.7s-3.7-1.7-3.7-3.7s1.7-3.7,3.7-3.7C52.7,39.4,54.3,41,54.3,43.1z"/>
</g>
<path class="st1" d="M27.5,18.7c0,0.4-0.4,0.8-0.8,0.8H3.3c-0.4,0-0.8-0.4-0.8-0.8V1.3c0-0.4,0.4-0.8,0.8-0.8h23.4
	c0.4,0,0.8,0.4,0.8,0.8C27.5,1.3,27.5,18.7,27.5,18.7z"/>
<rect x="5.5" y="3.5" class="st0" width="19" height="13"/>
<text transform="matrix(1 0 0 1 8.3535 12.292)" class="st3 st4 st5">VPS</text>
<line class="st0" x1="47.5" y1="28" x2="47.5" y2="22"/>
<path class="st1" d="M59.5,18.7c0,0.4-0.4,0.8-0.8,0.8H35.3c-0.4,0-0.8-0.4-0.8-0.8V1.3c0-0.4,0.4-0.8,0.8-0.8h23.4
	c0.4,0,0.8,0.4,0.8,0.8C59.5,1.3,59.5,18.7,59.5,18.7z"/>
<g>
	<path class="st6" d="M47,8.8h-0.7v1.3H47c0.2,0,0.4-0.1,0.5-0.2c0.1-0.1,0.2-0.3,0.2-0.5s-0.1-0.3-0.2-0.5
		C47.4,8.8,47.2,8.8,47,8.8z"/>
	<path class="st6" d="M37,3v14h20V3H37z M43.5,12.3h-1.1L41.1,8h1l0.8,3.1v0.2l0,0v-0.1l1-3.2h1L43.5,12.3z M48.2,10.4
		c-0.3,0.3-0.7,0.4-1.2,0.4h-0.7v1.5h-1V8H47c0.5,0,0.9,0.1,1.2,0.4c0.3,0.3,0.4,0.6,0.4,1C48.6,9.8,48.5,10.2,48.2,10.4z M52,12
		c-0.3,0.2-0.7,0.3-1.2,0.3s-0.9-0.1-1.3-0.4c-0.4-0.2-0.5-0.6-0.5-1.1l0,0h1c0,0.2,0.1,0.4,0.2,0.5c0.1,0.1,0.3,0.2,0.6,0.2
		c0.2,0,0.4,0,0.5-0.1s0.2-0.2,0.2-0.3c0-0.2,0-0.3-0.1-0.3c-0.1-0.1-0.3-0.2-0.5-0.3c-0.5-0.2-0.9-0.4-1.2-0.5
		c-0.3-0.2-0.4-0.5-0.4-0.8c0-0.4,0.2-0.6,0.5-0.9C50,8.1,50.4,8,50.8,8c0.5,0,0.9,0.1,1.2,0.4c0.3,0.2,0.4,0.6,0.4,0.9l0,0h-1
		c0-0.2-0.1-0.3-0.2-0.4c-0.1-0.1-0.3-0.2-0.5-0.2s-0.4,0-0.5,0.1S50,9,50,9.1s0.1,0.2,0.2,0.3c0.1,0.1,0.3,0.2,0.6,0.3
		c0.5,0.1,0.8,0.3,1.1,0.5c0.2,0.2,0.4,0.5,0.4,0.9C52.5,11.5,52.3,11.8,52,12z"/>
</g>
<line class="st0" x1="14.5" y1="28" x2="14.5" y2="22"/>
</svg>
